Coordinates
version=1
nRows=7
nColumns=40
inDegrees=yes

Units are S.I. units (second, meters, Newtons, ...)
Angles are in degrees.

endheader
time	pelvis_tilt	pelvis_list	pelvis_rotation	pelvis_tx	pelvis_ty	pelvis_tz	hip_flexion_r	hip_adduction_r	hip_rotation_r	knee_angle_r	knee_angle_r_beta	ankle_angle_r	subtalar_angle_r	mtp_angle_r	hip_flexion_l	hip_adduction_l	hip_rotation_l	knee_angle_l	knee_angle_l_beta	ankle_angle_l	subtalar_angle_l	mtp_angle_l	lumbar_extension	lumbar_bending	lumbar_rotation	arm_flex_r	arm_add_r	arm_rot_r	elbow_flex_r	pro_sup_r	wrist_flex_r	wrist_dev_r	arm_flex_l	arm_add_l	arm_rot_l	elbow_flex_l	pro_sup_l	wrist_flex_l	wrist_dev_l
      0.63000000	      3.47519255	     -6.36587874	      2.77602458	     -0.54703996	      0.89751457	      1.01401887	      8.71769793	      7.52060742	    -20.37277013	    -19.72020245	     -0.34418246	      4.07476080	      2.53804177	     -1.61659927	      5.78450335	     11.67627997	      7.75391891	    -58.24477641	     -1.01656312	     -5.18073652	      9.75005632	     -7.14957597	    -10.18054053	      8.76349948	     -1.73248839	      3.82826525	    -10.13594272	     17.72520679	     13.48754214	     89.95437384	      0.00000000	      0.00000000	     10.14621073	      6.56424097	    -14.05286072	     18.24546520	     89.95437384	      0.00000000	      0.00000000
      0.64000000	      3.90284450	     -6.18858106	      2.58388603	     -0.53744203	      0.89846037	      1.01482849	      7.42822207	      7.52043352	    -20.01700523	    -19.55582210	     -0.34131348	      4.71647833	      2.78159290	     -1.74298518	      6.64122423	     11.39850675	      7.45626549	    -58.85129262	     -1.02714883	     -4.10533038	      9.30257621	     -7.49375726	    -10.72170349	      8.49798194	     -1.28003339	      4.53530306	    -10.29975676	     18.17171141	     13.46404339	     89.95437384	      0.00000000	      0.00000000	      9.72177149	      6.50093400	    -14.11189498	     17.54027700	     89.95437384	      0.00000000	      0.00000000
      0.65000000	      4.25974380	     -5.97723602	      2.36028921	     -0.52797329	      0.89933043	      1.01567936	      6.24656306	      7.47303188	    -19.59399596	    -19.42001732	     -0.33894324	      5.29219097	      2.94921694	     -1.85592409	      7.54665252	     11.02480843	      7.16704720	    -59.19039195	     -1.03306723	     -2.95368569	      8.62986896	     -7.85049703	    -11.18100001	      8.18037622	     -0.83417561	      5.29718517	    -10.41868684	     18.60645349	     13.35829119	     89.95437384	      0.00000000	      0.00000000	      9.27423000	      6.46906246	    -14.21189773	     16.90384899	     89.95437384	      0.00000000	      0.00000000
      0.66000000	      4.56310411	     -5.78850971	      2.14657015	     -0.51855534	      0.90010243	      1.01650918	      5.12957609	      7.42832160	    -19.20238610	    -19.28035133	     -0.33650561	      5.82774839	      3.05170051	     -1.95890474	      8.49460159	     10.64955677	      6.86755626	    -59.30436368	     -1.03505641	     -1.67417446	      7.86639283	     -8.26926725	    -11.54456872	      7.88071303	     -0.44750805	      6.07994030	    -10.53267805	     19.02098149	     13.28449589	     89.95437384	      0.00000000	      0.00000000	      8.74358507	      6.48075341	    -14.30526163	     16.40344201	     89.95437384	      0.00000000	      0.00000000
      0.67000000	      4.67113106	     -5.59473345	      1.90693898	     -0.50937810	      0.90059126	      1.01740996	      4.27205689	      7.33183120	    -19.01056155	    -19.17367023	     -0.33464368	      6.20768592	      3.03638580	     -2.00702317	      9.70254293	     10.25962070	      6.62087803	    -59.23774775	     -1.03389374	     -0.83741165	      7.26456165	     -8.47815738	    -11.69161260	      7.56459385	     -0.05604532	      6.81712866	    -10.64398127	     19.22804632	     13.29244671	     89.95437384	      0.00000000	      0.00000000	      8.15225716	      6.54041247	    -14.41984018	     16.07325616	     89.95437384	      0.00000000	      0.00000000
      0.68000000	      5.25265232	     -5.28706685	      1.47118608	     -0.49923971	      0.90195865	      1.01829469	      2.66664829	      7.20327227	    -18.20426138	    -18.80004410	     -0.32812267	      6.77688969	      3.20610483	     -2.25263311	      9.89073460	      9.75649147	      6.70255560	    -58.42964193	     -1.01978963	      0.38904484	      5.90380693	     -9.77257668	    -12.27209439	      7.12140001	      0.46557654	      7.46708629	    -10.92321428	     20.28647961	     13.53591820	     89.95437384	      0.00000000	      0.00000000	      7.36668060	      6.68883721	    -14.85166608	     16.01347576	     89.95437384	      0.00000000	      0.00000000
      0.69000000	      5.13003231	     -5.14465404	      1.21829158	     -0.49019607	      0.90204942	      1.01921156	      2.07562871	      7.11640158	    -18.11249148	    -18.70135219	     -0.32640017	      7.09882224	      3.23203018	     -2.29590591	     11.28505397	      9.36137074	      6.46547069	    -57.91760936	     -1.01085298	      1.14100118	      5.57180215	     -9.88945045	    -12.13029459	      6.85658281	      0.78913421	      8.13114193	    -11.05344773	     20.32032151	     13.71516795	     89.95437384	      0.00000000	      0.00000000	      6.70693265	      6.77095173	    -14.86743930	     15.80102041	     89.95437384	      0.00000000	      0.00000000
